<svg width="24" height="24" viewBox="0 0 24 24" fill="none" xmlns="http://www.w3.org/2000/svg">
<path d="M22 19C22 21.2091 20.2091 23 18 23H6C3.79086 23 2 21.2091 2 19V11H22V19ZM7 17C6.44772 17 6 17.4477 6 18C6 18.5523 6.44772 19 7 19C7.55228 19 8 18.5523 8 18C8 17.4477 7.55228 17 7 17ZM12 17C11.4477 17 11 17.4477 11 18C11 18.5523 11.4477 19 12 19C12.5523 19 13 18.5523 13 18C13 17.4477 12.5523 17 12 17ZM17 17C16.4477 17 16 17.4477 16 18C16 18.5523 16.4477 19 17 19C17.5523 19 18 18.5523 18 18C18 17.4477 17.5523 17 17 17ZM7 13C6.44772 13 6 13.4477 6 14C6 14.5523 6.44772 15 7 15C7.55228 15 8 14.5523 8 14C8 13.4477 7.55228 13 7 13ZM12 13C11.4477 13 11 13.4477 11 14C11 14.5523 11.4477 15 12 15C12.5523 15 13 14.5523 13 14C13 13.4477 12.5523 13 12 13ZM17 13C16.4477 13 16 13.4477 16 14C16 14.5523 16.4477 15 17 15C17.5523 15 18 14.5523 18 14C18 13.4477 17.5523 13 17 13ZM16 1C17.6569 1 19 2.34315 19 4L19.001 4.12598C20.7257 4.57033 22 6.13649 22 8V9H2V8C2 6.13616 3.27477 4.57002 5 4.12598V4C5 2.34315 6.34315 1 8 1C9.59752 1 10.9036 2.24866 10.9951 3.82324L11 3.99902H13C13.0005 2.40196 14.249 1.09634 15.8232 1.00488L16 1ZM8 3C7.44772 3 7 3.44772 7 4V6C7 6.55228 7.44772 7 8 7C8.55228 7 9 6.55228 9 6V4L8.99316 3.88379C8.9354 3.38645 8.51284 3 8 3ZM16 3C15.4477 3 15 3.44772 15 4V6C15 6.55228 15.4477 7 16 7C16.5523 7 17 6.55228 17 6V4L16.9932 3.88379C16.9354 3.38645 16.5128 3 16 3Z" fill="#525765"/>
</svg>
