<svg width="24" height="24" viewBox="0 0 24 24" fill="none" xmlns="http://www.w3.org/2000/svg">
<path d="M2 11C2.55228 11 3 11.4477 3 12C3 16.9706 7.02944 21 12 21C14.5045 21 16.7701 19.977 18.4017 18.326L17.2508 18.6336C16.7173 18.7765 16.169 18.4599 16.026 17.9265C15.8831 17.393 16.1997 16.8447 16.7331 16.7017L20.5969 15.6664C21.1303 15.5235 21.6787 15.8401 21.8216 16.3736C21.8822 16.5996 21.8602 16.8283 21.7743 17.0277L21.7839 17.0325C19.9573 20.5765 16.2617 23 12 23C6.0213 23 1.15663 18.2302 1.00371 12.2884L1 12C1 11.4477 1.44772 11 2 11ZM12 1C17.9787 1 22.8434 5.76976 22.9963 11.7116L23 12C23 12.5523 22.5523 13 22 13C21.4477 13 21 12.5523 21 12C21 7.02944 16.9706 3 12 3C9.49549 3 7.22991 4.02301 5.59834 5.67396L6.74921 5.36642C7.28268 5.22348 7.83102 5.54006 7.97396 6.07353C8.1169 6.607 7.80032 7.15533 7.26685 7.29827L3.40315 8.33355C2.86968 8.47649 2.32134 8.15991 2.1784 7.62644C2.11784 7.40041 2.13977 7.1717 2.22575 6.97229L2.21609 6.96752C4.04269 3.42351 7.73832 1 12 1Z" fill="#525765"/>
</svg>
