<svg width="24" height="24" viewBox="0 0 24 24" fill="none" xmlns="http://www.w3.org/2000/svg">
<path d="M9.7812 2.27733L3.7812 6.27733C2.6684 7.01919 2 8.26812 2 9.60553V18C2 20.2091 3.79086 22 6 22L7.00015 21.9998C8.65689 21.9991 9.99955 20.6563 10 18.9998V18L10.0047 17.8526C10.0644 16.8285 10.9393 16 12 16L12.1474 16.0047C13.1715 16.0644 14 16.9393 14 18V18.9995C14.0004 20.6563 15.3431 21.9991 16.9996 21.9998L17.9999 22C20.2091 22 22 20.2091 22 18V9.60553C22 8.26812 21.3316 7.01919 20.2188 6.27733L14.2188 2.27733C12.8752 1.3816 11.1248 1.3816 9.7812 2.27733Z" fill="#525765"/>
</svg>
