<svg width="24" height="24" viewBox="0 0 24 24" fill="none" xmlns="http://www.w3.org/2000/svg">
<path d="M16 1.5C16.5523 1.5 17 1.94772 17 2.5H18C20.2091 2.5 22 4.29086 22 6.5V18.5C22 20.7091 20.2091 22.5 18 22.5H6C3.79086 22.5 2 20.7091 2 18.5V6.5C2 4.29086 3.79086 2.5 6 2.5H7C7 1.94772 7.44772 1.5 8 1.5C8.55228 1.5 9 1.94772 9 2.5H15C15 1.94772 15.4477 1.5 16 1.5ZM4 18.5C4 19.5543 4.81581 20.4177 5.85059 20.4941L6 20.5H18C19.0543 20.5 19.9177 19.6842 19.9941 18.6494L20 18.5V10.5H4V18.5ZM7 16.5C7.55228 16.5 8 16.9477 8 17.5C8 18.0523 7.55228 18.5 7 18.5C6.44772 18.5 6 18.0523 6 17.5C6 16.9477 6.44772 16.5 7 16.5ZM12 16.5C12.5523 16.5 13 16.9477 13 17.5C13 18.0523 12.5523 18.5 12 18.5C11.4477 18.5 11 18.0523 11 17.5C11 16.9477 11.4477 16.5 12 16.5ZM17 16.5C17.5523 16.5 18 16.9477 18 17.5C18 18.0523 17.5523 18.5 17 18.5C16.4477 18.5 16 18.0523 16 17.5C16 16.9477 16.4477 16.5 17 16.5ZM7 12.5C7.55228 12.5 8 12.9477 8 13.5C8 14.0523 7.55228 14.5 7 14.5C6.44772 14.5 6 14.0523 6 13.5C6 12.9477 6.44772 12.5 7 12.5ZM12 12.5C12.5523 12.5 13 12.9477 13 13.5C13 14.0523 12.5523 14.5 12 14.5C11.4477 14.5 11 14.0523 11 13.5C11 12.9477 11.4477 12.5 12 12.5ZM17 12.5C17.5523 12.5 18 12.9477 18 13.5C18 14.0523 17.5523 14.5 17 14.5C16.4477 14.5 16 14.0523 16 13.5C16 12.9477 16.4477 12.5 17 12.5ZM5.85059 4.50586C4.81581 4.58229 4 5.4457 4 6.5V8.5H20V6.5L19.9941 6.35059C19.9177 5.31581 19.0543 4.5 18 4.5H17L16.9951 4.60254C16.9438 5.10667 16.5177 5.5 16 5.5C15.4823 5.5 15.0562 5.10667 15.0049 4.60254L15 4.5H9L8.99512 4.60254C8.94379 5.10667 8.51768 5.5 8 5.5C7.48232 5.5 7.05621 5.10667 7.00488 4.60254L7 4.5H6L5.85059 4.50586Z" fill="#525765"/>
</svg>
