<svg width="24" height="24" viewBox="0 0 24 24" fill="none" xmlns="http://www.w3.org/2000/svg">
<path d="M22 19C22 21.209 20.2089 22.9998 18 23H6C4.45512 23 3.1146 22.124 2.44824 20.8418L2.48633 20.8359L2.46875 20.6934C2.40817 19.889 2.97114 19.1567 3.78223 19.0215L3.91113 19.0059L4.04102 19H22ZM7 7.6123C7 7.71975 7.01682 7.82678 7.05078 7.92871C7.21295 8.41523 7.71304 8.69427 8.20312 8.5918L8.31543 8.56152L9.68359 8.10547C9.84758 8.05085 10.0222 8.03956 10.1904 8.07227L10.3154 8.10547L11.6836 8.56152C11.7855 8.59544 11.8926 8.6123 12 8.6123C12.5126 8.61209 12.9353 8.22657 12.9932 7.72949L13 7.6123V1H18C20.2089 1.00023 22 2.791 22 5V15.6367C21.9998 16.3897 21.3887 17 20.6357 17H4.04102L3.84375 17.0059C3.7129 17.0131 3.58249 17.0273 3.45312 17.0488C2.91265 17.1389 2.42068 17.3461 1.99902 17.6396L2 5C2 2.79086 3.79086 1 6 1H7V7.6123Z" fill="#525765"/>
</svg>
