<svg width="24" height="24" viewBox="0 0 24 24" fill="none" xmlns="http://www.w3.org/2000/svg">
<path fill-rule="evenodd" clip-rule="evenodd" d="M9.78125 2.27724C11.1248 1.38154 12.8752 1.38154 14.2188 2.27724L20.2188 6.27724C21.3315 7.01909 22 8.26798 22 9.60537V17.9999C22 20.209 20.2092 21.9998 18 21.9999H17C15.3437 21.9992 14.0007 20.6564 14 18.9999V17.9999C14 16.9393 13.1716 16.0646 12.1475 16.0048L12 15.9999C10.9394 15.9999 10.0647 16.8283 10.0049 17.8524L10 17.9999V18.9999C9.99945 20.6563 8.65668 21.9992 7 21.9999H6C3.79086 21.9999 2 20.209 2 17.9999V9.60537C2.00002 8.26798 2.66848 7.01909 3.78125 6.27724L9.78125 2.27724ZM13.1094 3.94131C12.4376 3.49349 11.5624 3.49349 10.8906 3.94131L4.89062 7.94131C4.33426 8.31222 4.00004 8.93671 4 9.60537V17.9999C4 19.1045 4.89558 19.9999 6 19.9999H7C7.5521 19.9994 7.99962 19.5517 8 18.9999V17.9706L8.00684 17.7655C8.12921 15.6562 9.87874 13.9995 12.0293 13.9999L12.2344 14.0067C14.3437 14.1291 16 15.8782 16 17.9999V18.9989C16.0001 19.5513 16.4479 19.9996 17 19.9999H18C19.1046 19.9999 20 19.1045 20 17.9999V9.60537C20 8.93671 19.6657 8.31222 19.1094 7.94131L13.1094 3.94131Z" fill="#525765"/>
</svg>
