<svg width="24" height="24" viewBox="0 0 24 24" fill="none" xmlns="http://www.w3.org/2000/svg">
<path d="M18 1C20.2091 1 22 2.79086 22 5V19C22 21.2091 20.2091 23 18 23H6C3.79086 23 2 21.2091 2 19V5C2 2.79086 3.79086 1 6 1H18ZM4.94629 19.0078C4.63253 19.0603 4.42053 19.3571 4.47266 19.6709C4.59247 20.3898 5.18358 20.9286 5.89746 20.9932L6.04102 21H18C19.0446 21 19.9002 20.199 19.9902 19.1777C19.9954 19.1191 20 19.06 20 19H5.04102C5.00938 19 4.97749 19.0026 4.94629 19.0078ZM6 3C4.9457 3 4.08229 3.81581 4.00586 4.85059L4 5V17.2217C4.19328 17.1364 4.39925 17.0715 4.61719 17.0352C4.75716 17.0118 4.89911 17 5.04102 17H20V5C20 3.9457 19.1842 3.08229 18.1494 3.00586L18 3H13V7.6123C13 8.16459 12.5523 8.6123 12 8.6123C11.8925 8.6123 11.7856 8.59551 11.6836 8.56152L10.3164 8.10547C10.1111 8.03705 9.88886 8.03705 9.68359 8.10547L8.31641 8.56152C7.79248 8.73617 7.22642 8.45262 7.05176 7.92871C7.01777 7.82674 7 7.71979 7 7.6123V3H6ZM9 6.22461L9.05176 6.20801C9.59902 6.02567 10.1862 6.00558 10.7422 6.14746L11 6.22461V3H9V6.22461Z" fill="#525765"/>
</svg>
